<svg width="57" height="38" viewBox="0 0 57 38" fill="none" xmlns="http://www.w3.org/2000/svg">
<rect width="57" height="38" rx="1" fill="black"/>
<path d="M3.27841 24V22.7216L11.1193 11.017H3.19318V9.45455H13.2216V10.733L5.38068 22.4375H13.3068V24H3.27841Z" fill="#CF226B"/>
<path d="M20.7727 17.4545L18.3523 24H17.3295L14.9091 17.4545H16L17.8068 22.6705H17.875L19.6818 17.4545H20.7727ZM23.8271 24.1534C23.4123 24.1534 23.0359 24.0753 22.6978 23.919C22.3597 23.7599 22.0913 23.5312 21.8924 23.233C21.6935 22.9318 21.5941 22.5682 21.5941 22.142C21.5941 21.767 21.668 21.4631 21.8157 21.2301C21.9634 20.9943 22.1609 20.8097 22.408 20.6761C22.6552 20.5426 22.9279 20.4432 23.2262 20.3778C23.5273 20.3097 23.8299 20.2557 24.1339 20.2159C24.5316 20.1648 24.854 20.1264 25.1012 20.1009C25.3512 20.0724 25.533 20.0256 25.6467 19.9602C25.7631 19.8949 25.8214 19.7812 25.8214 19.6193V19.5852C25.8214 19.1648 25.7063 18.8381 25.4762 18.6051C25.2489 18.3722 24.9038 18.2557 24.4407 18.2557C23.9606 18.2557 23.5842 18.3608 23.3114 18.571C23.0387 18.7812 22.8469 19.0057 22.7362 19.2443L21.7816 18.9034C21.9521 18.5057 22.1793 18.196 22.4634 17.9744C22.7504 17.75 23.0629 17.5937 23.4009 17.5057C23.7418 17.4148 24.0771 17.3693 24.4066 17.3693C24.6168 17.3693 24.8583 17.3949 25.131 17.446C25.4066 17.4943 25.6722 17.5952 25.9279 17.7486C26.1864 17.902 26.4009 18.1335 26.5714 18.4432C26.7418 18.7528 26.8271 19.1676 26.8271 19.6875V24H25.8214V23.1136H25.7702C25.7021 23.2557 25.5884 23.4077 25.4293 23.5696C25.2702 23.7315 25.0586 23.8693 24.7944 23.983C24.5302 24.0966 24.2077 24.1534 23.8271 24.1534ZM23.9805 23.25C24.3782 23.25 24.7134 23.1719 24.9862 23.0156C25.2617 22.8594 25.4691 22.6577 25.6083 22.4105C25.7504 22.1634 25.8214 21.9034 25.8214 21.6307V20.7102C25.7788 20.7614 25.685 20.8082 25.5401 20.8509C25.3981 20.8906 25.2333 20.9261 25.0458 20.9574C24.8612 20.9858 24.6808 21.0114 24.5046 21.0341C24.3313 21.054 24.1907 21.071 24.0827 21.0852C23.8214 21.1193 23.5771 21.1747 23.3498 21.2514C23.1254 21.3253 22.9435 21.4375 22.8043 21.5881C22.668 21.7358 22.5998 21.9375 22.5998 22.1932C22.5998 22.5426 22.729 22.8068 22.9876 22.9858C23.2489 23.1619 23.5799 23.25 23.9805 23.25ZM29.6683 15.2727V24H28.6626V15.2727H29.6683ZM32.158 26.4545C31.9876 26.4545 31.8356 26.4403 31.7021 26.4119C31.5685 26.3864 31.4762 26.3608 31.4251 26.3352L31.6808 25.4489C31.9251 25.5114 32.141 25.5341 32.3285 25.517C32.516 25.5 32.6822 25.4162 32.8271 25.2656C32.9748 25.1179 33.1097 24.8778 33.2319 24.5455L33.4194 24.0341L30.9989 17.4545H32.0898L33.8967 22.6705H33.9648L35.7717 17.4545H36.8626L34.0842 24.9545C33.9592 25.2926 33.8043 25.5724 33.6197 25.794C33.435 26.0185 33.2205 26.1847 32.9762 26.2926C32.7347 26.4006 32.462 26.4545 32.158 26.4545ZM38.3263 24V15.2727H41.3775C41.9854 15.2727 42.4869 15.3778 42.8817 15.5881C43.2766 15.7955 43.5707 16.0753 43.7638 16.4276C43.957 16.777 44.0536 17.1648 44.0536 17.5909C44.0536 17.9659 43.9869 18.2756 43.8533 18.5199C43.7227 18.7642 43.5494 18.9574 43.3335 19.0994C43.1204 19.2415 42.8888 19.3466 42.6388 19.4148V19.5C42.9059 19.517 43.1744 19.6108 43.4442 19.7812C43.7141 19.9517 43.94 20.196 44.1218 20.5142C44.3036 20.8324 44.3945 21.2216 44.3945 21.6818C44.3945 22.1193 44.2951 22.5128 44.0962 22.8622C43.8974 23.2116 43.5835 23.4886 43.1545 23.6932C42.7255 23.8977 42.1673 24 41.4798 24H38.3263ZM39.3832 23.0625H41.4798C42.1701 23.0625 42.6602 22.929 42.9499 22.6619C43.2425 22.392 43.3888 22.0653 43.3888 21.6818C43.3888 21.3864 43.3136 21.1136 43.163 20.8636C43.0124 20.6108 42.7979 20.4091 42.5195 20.2585C42.2411 20.1051 41.9116 20.0284 41.5309 20.0284H39.3832V23.0625ZM39.3832 19.108H41.3434C41.6616 19.108 41.9485 19.0455 42.2042 18.9205C42.4627 18.7955 42.6673 18.6193 42.8178 18.392C42.9712 18.1648 43.0479 17.8977 43.0479 17.5909C43.0479 17.2074 42.9144 16.8821 42.6474 16.6151C42.3803 16.3452 41.957 16.2102 41.3775 16.2102H39.3832V19.108ZM48.8242 24H46.131V15.2727H48.9435C49.7901 15.2727 50.5146 15.4474 51.1168 15.7969C51.7191 16.1435 52.1808 16.642 52.5018 17.2926C52.8228 17.9403 52.9833 18.7159 52.9833 19.6193C52.9833 20.5284 52.8214 21.3111 52.4975 21.9673C52.1737 22.6207 51.7021 23.1236 51.0827 23.4759C50.4634 23.8253 49.7106 24 48.8242 24ZM47.1879 23.0625H48.756C49.4776 23.0625 50.0756 22.9233 50.5501 22.6449C51.0245 22.3665 51.3782 21.9702 51.6112 21.456C51.8441 20.9418 51.9606 20.3295 51.9606 19.6193C51.9606 18.9148 51.8455 18.3082 51.6154 17.7997C51.3853 17.2884 51.0415 16.8963 50.5842 16.6236C50.1268 16.348 49.5572 16.2102 48.8754 16.2102H47.1879V23.0625Z" fill="#F5F5F5"/>
</svg>
